<?xml version="1.0" encoding="UTF-8"?>
<svg width="40px" height="24px" viewBox="0 0 40 24" version="1.1" xmlns="http://www.w3.org/2000/svg" xmlns:xlink="http://www.w3.org/1999/xlink">
    <title>Artboard@1x</title>
    <g id="Artboard" stroke="none" stroke-width="1" fill="none" fill-rule="evenodd">
        <g id="logo-colors" transform="translate(0.000000, 2.000000)">
            <g id="Group" fill="#434343">
                <path d="M6.16832863,7.09105279 C6.33672882,7.25532027 6.53253011,7.38436952 6.75077699,7.47536399 C6.97374619,7.5693916 7.2130103,7.64221526 7.46195225,7.69161627 C7.71261405,7.74084877 7.96965973,7.77103983 8.22568515,7.78103799 C8.47442305,7.79185061 8.72444355,7.79727096 8.96860487,7.79727096 L10.6750232,7.79727096 C11.8560983,7.79727096 12.7230517,7.61418672 13.2514849,7.25290498 C13.7689285,6.89999249 14.0311629,6.34164033 14.0311629,5.59366019 L14.0311629,2.30458927e-13 L12.7020636,2.30458927e-13 L12.7020636,5.50623248 C12.7020636,6.16380793 12.0942838,6.49711729 10.8953397,6.49711729 L8.79626942,6.49711729 C7.57840694,6.49711729 6.96089099,6.16380793 6.96089099,5.50623248 L6.96089099,2.30458927e-13 L5.61246517,2.30458927e-13 L5.61246517,5.59366019 C5.61246517,5.94755565 5.66371106,6.24783739 5.7646579,6.4857149 C5.86537153,6.72634471 6.00118189,6.92981845 6.16832863,7.09105279" id="Fill-1"></path>
                <path d="M26.3785863,7.72230702 L26.3785863,0.826177665 C26.3785863,0.575321941 26.3089417,0.372168027 26.1715108,0.222212541 C26.0352522,0.0726161305 25.8598827,2.30458927e-13 25.6352532,2.30458927e-13 C25.3206231,2.30458927e-13 25.0843576,0.121395167 24.9131051,0.371284149 L20.8097062,6.12566365 L16.6207382,0.362003426 C16.4376781,0.118854017 16.1910631,2.30458927e-13 15.8680562,2.30458927e-13 C15.6548626,2.30458927e-13 15.4864405,0.065020301 15.3530694,0.198706901 C15.218812,0.333498349 15.153656,0.518063197 15.153656,0.762842257 L15.153656,7.72230702 L16.4765888,7.72230702 L16.4765888,2.32819081 L19.9832913,7.35198962 C20.1926539,7.651652 20.4596535,7.79727096 20.7997284,7.79727096 C20.9512539,7.79727096 21.0972617,7.76028617 21.2337205,7.68725572 C21.3707797,7.61370047 21.4929437,7.50092312 21.5964099,7.35198962 L25.0560823,2.36931878 L25.0560823,7.72230702 L26.3785863,7.72230702 Z" id="Fill-3"></path>
                <polygon id="Fill-5" points="27.5010793 7.79727096 28.6235724 7.79727096 28.6235724 2.30458927e-13 27.5010793 2.30458927e-13"></polygon>
                <path d="M34.7908364,1.68323573 L36.4151392,4.35087016 L33.1978269,4.35087016 L34.7908364,1.68323573 Z M37.1801284,5.64359162 L38.4102363,7.79727096 L39.8485027,7.79727096 L35.5918156,0.477257976 C35.3952462,0.156758676 35.1479851,2.31393851e-13 34.8375539,2.31393851e-13 C34.5340984,2.31393851e-13 34.2901445,0.160054155 34.0920188,0.489183142 L29.7460654,7.79727096 L31.2650383,7.79727096 L32.4667156,5.64359162 L37.1801284,5.64359162 Z" id="Fill-7"></path>
                <path d="M3.13274071,4.32373567 C3.17151382,5.54555553 2.85143432,6.2482961 2.125474,6.53168003 C1.4778365,6.7839164 0.487022474,6.87318178 2.75802772e-14,6.90292756 L0.0134900508,8.35421888 C0.229877369,8.33924787 0.81176165,8.2781022 1.98576999,8.02805261 C3.67386721,7.66818754 4.42660629,6.52548416 4.42660629,4.32275443 L4.42660629,4.32135265 L4.48997213,0.00482212469 L3.16489823,7.47939722e-15 L3.16265468,1.39465939 L3.13274071,4.32373567 Z" id="Fill-8"></path>
            </g>
            <path d="M22.9056321,13.9367984 C22.9056321,13.6830694 22.8849646,13.4744779 22.8438958,13.3113702 C22.8028271,13.1482092 22.7317158,13.0195072 22.6307751,12.9251844 C22.5295947,12.8310745 22.3986115,12.7657782 22.2375591,12.7294285 C22.0765334,12.6931853 21.8792596,12.6749971 21.6457376,12.6749971 L17.6387377,12.6749971 L17.6387377,15.7750558 L21.6645142,15.7750558 C21.8980361,15.7750558 22.0939516,15.7587317 22.2517814,15.7260569 C22.4096111,15.6934619 22.5376646,15.6336247 22.6355958,15.5465984 C22.7333138,15.4595721 22.8028271,15.3382732 22.8438958,15.1822224 C22.8849646,15.0263846 22.9056321,14.8251696 22.9056321,14.5785241 L22.9056321,13.9367984 Z M17.6387377,16.8083998 L17.6387377,18.994709 L16.5398956,18.994709 L16.5398956,11.5873016 L21.6551392,11.5873016 C22.1033799,11.5873016 22.4775263,11.6288974 22.7775786,11.7122221 C23.0773911,11.7954936 23.318983,11.9310927 23.5022743,12.1192857 C23.6853259,12.3073989 23.8149774,12.549757 23.890643,12.8464932 C23.9663618,13.1432294 24.0044743,13.5086706 24.0044743,13.9427103 L24.0044743,14.5722129 C24.0044743,15.0064922 23.9679865,15.3664742 23.8954903,15.6523455 C23.822781,15.9382167 23.6965918,16.1680056 23.5165232,16.341712 C23.3364279,16.5154183 23.094836,16.6367172 22.7918275,16.7053956 C22.4887923,16.7740473 22.1097985,16.8083998 21.6551392,16.8083998 L17.6387377,16.8083998 Z" id="Fill-9" fill="#378EF9"></path>
            <path d="M26.3790712,16.1875861 L30.1412613,16.1875861 L28.2603147,12.900097 L26.3790712,16.1875861 Z M30.7077013,17.1909121 L25.812928,17.1909121 L24.7860936,18.994709 L23.4712901,18.994709 L27.4251988,12.1423502 C27.5149463,11.9786917 27.6220713,11.845293 27.7468705,11.7420494 C27.8716967,11.6389626 28.049033,11.5873016 28.2796079,11.5873016 C28.50341,11.5873016 28.6793432,11.6389626 28.8074344,11.7420494 C28.9352288,11.845293 29.0440267,11.9786917 29.1337472,12.1423502 L33.0686055,18.994709 L31.7440339,18.994709 L30.7077013,17.1909121 Z" id="Fill-10" fill="#378EF9"></path>
            <polygon id="Fill-11" fill="#378EF9" points="34.8921991 18.994709 34.8921991 15.4213535 30.9358688 11.5873016 32.4933022 11.5873016 35.4823223 14.4112211 38.5198643 11.5873016 40 11.5873016 36.0143498 15.4322026 36.0143498 18.994709"></polygon>
            <path d="M8.38823516,16.7232594 C8.5799717,16.9101686 8.79219187,17.0760061 9.02134042,17.2169406 C8.14319744,19.2671954 6.62730003,20.5736444 4.99161857,21.0840188 L4.99161857,21.0842925 C4.97630371,21.0886711 4.96208277,21.0941442 4.94786183,21.0985228 L4.90984817,21.1111111 L4.86748618,21.0985228 C2.36840227,20.3415814 0.136289151,17.7322409 0.01620426,13.4494743 C-0.00649454649,12.6320543 0.0471074545,11.7536082 0.19125855,10.8146835 L0.209554335,10.6989256 L0.327998348,10.6989256 C1.92399793,10.6989256 3.74564552,10.4249927 4.86064919,10.0183352 L4.90984817,10 L4.9549723,10.0183352 C6.06967514,10.4249927 7.89159621,10.6989256 9.48899053,10.6989256 L9.6074072,10.6989256 L9.60850112,10.7052198 C9.18105251,10.8718782 8.79271148,11.1168032 8.46098073,11.4227542 C7.18085009,11.3447613 5.93621709,11.1324018 4.99161857,10.8283664 L4.99161857,10.8289137 C4.97767111,10.8245352 4.96481756,10.8204303 4.9522375,10.8160518 L4.90984817,10.8020951 L4.99161857,20.2879442 C5.64988395,20.050408 6.24333468,19.6924618 6.75449539,19.2228626 C7.45320842,18.5814054 8.00317589,17.7270414 8.38823516,16.7232594" id="Fill-12" fill="#378EF9"></path>
            <path d="M13.1051562,13.2538161 L12.0225622,14.2996379 L12.2766415,15.777962 L10.9403552,15.0794585 L9.60304624,15.7764536 L9.85936425,14.2984312 L8.77837331,13.2514027 L10.2736354,13.0366599 L10.9422622,11.6929135 L11.6107509,13.0374004 L13.1051562,13.2538161 Z M13.4503038,12.460749 C13.4011628,12.3807484 13.3484565,12.303271 13.2922125,12.2285361 C13.2077497,12.1163927 13.1154653,12.0105023 13.0161054,11.9117975 C12.9825801,11.8791061 12.948889,11.8469633 12.9144239,11.8154238 C12.8448306,11.7527288 12.7723076,11.6933523 12.6972418,11.6374588 C12.6220103,11.5815654 12.5439596,11.5289904 12.4633938,11.4805019 C12.4230142,11.455956 12.3820818,11.4325893 12.3403202,11.41021 C11.9253305,11.1858134 11.4493153,11.0585036 10.943423,11.0582015 C10.4375031,11.0579277 9.9609628,11.1847164 9.54533738,11.4086467 C9.5035482,11.4309986 9.46256053,11.4543104 9.42234674,11.4788015 C9.34175333,11.5272078 9.26328807,11.5797004 9.18813941,11.6355116 C9.11282492,11.6912953 9.0404401,11.750425 8.97098494,11.8132297 C8.93627118,11.8445224 8.90213782,11.8766104 8.86916528,11.9094663 C8.7695014,12.0082534 8.67707878,12.1140615 8.59253308,12.2259033 C8.33900655,12.561977 8.15700805,12.9539442 8.06889701,13.3800015 C8.02978875,13.5695126 8.00908763,13.765414 8.00894899,13.9662245 C8.00878361,14.2674128 8.05471854,14.558152 8.14023158,14.8313662 C8.18309865,14.9679733 8.23577733,15.1003294 8.29746612,15.2276118 C8.33839851,15.3126587 8.38386358,15.3947985 8.43245179,15.474991 C8.45691173,15.5152793 8.48258775,15.5546076 8.50862307,15.5933326 C8.56152286,15.6706181 8.61815383,15.745161 8.67754863,15.8174001 C8.79686337,15.9610556 8.93010783,16.0934391 9.07457345,16.2121921 C9.14728994,16.271788 9.22238332,16.327846 9.30037873,16.379845 C9.37815303,16.432228 9.45913338,16.4811279 9.54224188,16.525722 C9.95761856,16.7500911 10.4340207,16.8780043 10.939913,16.8783064 C11.4458329,16.8785803 11.9219586,16.7514076 12.3372248,16.5272853 C12.3790139,16.5051254 12.4200016,16.4818136 12.4604089,16.457487 C12.5812437,16.3846171 12.696385,16.3031355 12.8052248,16.2142765 C12.8776373,16.1547903 12.9472859,16.0921775 13.0135903,16.0264383 C13.0799223,15.9605071 13.1428825,15.8916687 13.2027195,15.8198958 C13.2627776,15.7477664 13.3192981,15.6732784 13.3720597,15.5960478 C13.3983437,15.5571582 13.4238815,15.5178573 13.4484244,15.4777884 C13.7182852,15.0380184 13.8736956,14.5217033 13.8739733,13.9694881 C13.8744971,13.4173004 13.7196671,12.9008208 13.4503038,12.460749 L13.4503038,12.460749 Z" id="Fill-13" fill="#FF9900"></path>
        </g>
    </g>
</svg>